<svg width="18" height="11" viewBox="0 0 18 11" fill="none" xmlns="http://www.w3.org/2000/svg">
<path d="M13.3226 9.68H13.0968V2.64C13.0968 2.46496 13.0254 2.29708 12.8984 2.17331C12.7713 2.04954 12.599 1.98 12.4194 1.98H10.3871V0.66C10.3871 0.484957 10.3157 0.317084 10.1887 0.19331C10.0616 0.0695355 9.88934 0 9.70968 0H4.29032C4.11066 0 3.93836 0.0695355 3.81131 0.19331C3.68427 0.317084 3.6129 0.484957 3.6129 0.66V3.96H1.58065C1.40098 3.96 1.22868 4.02954 1.10164 4.15331C0.974597 4.27708 0.903226 4.44496 0.903226 4.62V9.68H0.677419C0.497757 9.68 0.325452 9.74954 0.198412 9.87331C0.0713708 9.99708 0 10.165 0 10.34C0 10.515 0.0713708 10.6829 0.198412 10.8067C0.325452 10.9305 0.497757 11 0.677419 11H13.3226C13.5022 11 13.6745 10.9305 13.8016 10.8067C13.9286 10.6829 14 10.515 14 10.34C14 10.165 13.9286 9.99708 13.8016 9.87331C13.6745 9.74954 13.5022 9.68 13.3226 9.68ZM2.25806 5.28H4.29032C4.46999 5.28 4.64229 5.21046 4.76933 5.08669C4.89637 4.96292 4.96774 4.79504 4.96774 4.62V1.32H9.03226V2.64C9.03226 2.81504 9.10363 2.98292 9.23067 3.10669C9.35771 3.23046 9.53001 3.3 9.70968 3.3H11.7419V9.68H8.12903V8.14C8.12903 8.08165 8.10524 8.02569 8.06289 7.98444C8.02055 7.94318 7.96311 7.92 7.90323 7.92H6.09677C6.03689 7.92 5.97945 7.94318 5.9371 7.98444C5.89476 8.02569 5.87097 8.08165 5.87097 8.14V9.68H2.25806V5.28ZM5.87097 2.64C5.87097 2.46496 5.94234 2.29708 6.06938 2.17331C6.19642 2.04954 6.36872 1.98 6.54839 1.98H7.45161C7.63128 1.98 7.80358 2.04954 7.93062 2.17331C8.05766 2.29708 8.12903 2.46496 8.12903 2.64C8.12903 2.81504 8.05766 2.98292 7.93062 3.10669C7.80358 3.23046 7.63128 3.3 7.45161 3.3H6.54839C6.36872 3.3 6.19642 3.23046 6.06938 3.10669C5.94234 2.98292 5.87097 2.81504 5.87097 2.64ZM5.87097 4.62C5.87097 4.44496 5.94234 4.27708 6.06938 4.15331C6.19642 4.02954 6.36872 3.96 6.54839 3.96H7.45161C7.63128 3.96 7.80358 4.02954 7.93062 4.15331C8.05766 4.27708 8.12903 4.44496 8.12903 4.62C8.12903 4.79504 8.05766 4.96292 7.93062 5.08669C7.80358 5.21046 7.63128 5.28 7.45161 5.28H6.54839C6.36872 5.28 6.19642 5.21046 6.06938 5.08669C5.94234 4.96292 5.87097 4.79504 5.87097 4.62ZM8.80645 4.62C8.80645 4.44496 8.87782 4.27708 9.00486 4.15331C9.1319 4.02954 9.30421 3.96 9.48387 3.96H10.3871C10.5668 3.96 10.7391 4.02954 10.8661 4.15331C10.9931 4.27708 11.0645 4.44496 11.0645 4.62C11.0645 4.79504 10.9931 4.96292 10.8661 5.08669C10.7391 5.21046 10.5668 5.28 10.3871 5.28H9.48387C9.30421 5.28 9.1319 5.21046 9.00486 5.08669C8.87782 4.96292 8.80645 4.79504 8.80645 4.62ZM5.19355 6.6C5.19355 6.77504 5.12218 6.94292 4.99514 7.06669C4.8681 7.19046 4.69579 7.26 4.51613 7.26H3.6129C3.43324 7.26 3.26094 7.19046 3.1339 7.06669C3.00685 6.94292 2.93548 6.77504 2.93548 6.6C2.93548 6.42496 3.00685 6.25708 3.1339 6.13331C3.26094 6.00954 3.43324 5.94 3.6129 5.94H4.51613C4.69579 5.94 4.8681 6.00954 4.99514 6.13331C5.12218 6.25708 5.19355 6.42496 5.19355 6.6ZM5.87097 6.6C5.87097 6.42496 5.94234 6.25708 6.06938 6.13331C6.19642 6.00954 6.36872 5.94 6.54839 5.94H7.45161C7.63128 5.94 7.80358 6.00954 7.93062 6.13331C8.05766 6.25708 8.12903 6.42496 8.12903 6.6C8.12903 6.77504 8.05766 6.94292 7.93062 7.06669C7.80358 7.19046 7.63128 7.26 7.45161 7.26H6.54839C6.36872 7.26 6.19642 7.19046 6.06938 7.06669C5.94234 6.94292 5.87097 6.77504 5.87097 6.6ZM8.80645 6.6C8.80645 6.42496 8.87782 6.25708 9.00486 6.13331C9.1319 6.00954 9.30421 5.94 9.48387 5.94H10.3871C10.5668 5.94 10.7391 6.00954 10.8661 6.13331C10.9931 6.25708 11.0645 6.42496 11.0645 6.6C11.0645 6.77504 10.9931 6.94292 10.8661 7.06669C10.7391 7.19046 10.5668 7.26 10.3871 7.26H9.48387C9.30421 7.26 9.1319 7.19046 9.00486 7.06669C8.87782 6.94292 8.80645 6.77504 8.80645 6.6Z" fill="#2C2C2C"/>
</svg>
