<svg width="11" height="6" viewBox="0 0 11 6" fill="none" xmlns="http://www.w3.org/2000/svg">
<path d="M10.7884 1.18378L6.00738 5.79649C5.94076 5.861 5.86159 5.91218 5.77442 5.9471C5.68725 5.98202 5.59379 6 5.4994 6C5.40501 6 5.31156 5.98202 5.22438 5.9471C5.13721 5.91218 5.05805 5.861 4.99142 5.79649L0.210413 1.18378C0.0756879 1.0538 -2.00756e-09 0.877507 0 0.693683C2.00756e-09 0.50986 0.0756879 0.333566 0.210413 0.203583C0.345138 0.0736001 0.527865 0.000576714 0.718395 0.000576712C0.908925 0.00057671 1.09165 0.0736001 1.22638 0.203583L5.5 4.32677L9.77362 0.203007C9.90835 0.0730238 10.0911 0 10.2816 0C10.4721 0 10.6549 0.0730238 10.7896 0.203007C10.9243 0.332989 11 0.509284 11 0.693107C11 0.87693 10.9243 1.05322 10.7896 1.18321L10.7884 1.18378Z" fill="#747474"/>
</svg>
