<svg width="14" height="14" viewBox="0 0 14 14" fill="none" xmlns="http://www.w3.org/2000/svg">
<path d="M13.9454 10.9709C13.8701 10.7862 13.7232 10.6385 13.537 10.5602C13.3509 10.4819 13.1406 10.4795 12.9526 10.5534L12.3321 10.7971L10.61 7.41415C10.5466 7.28965 10.4491 7.18494 10.3285 7.11176C10.2079 7.03858 10.0689 6.99981 9.92717 6.9998H5.09054V5.99984H8.39981C8.60235 5.99984 8.7966 5.92083 8.93981 5.78018C9.08303 5.63954 9.16349 5.44878 9.16349 5.24988C9.16349 5.05097 9.08303 4.86022 8.93981 4.71957C8.7966 4.57893 8.60235 4.49991 8.39981 4.49991H5.09054V4.11306C5.56448 3.93749 5.96068 3.60419 6.21011 3.17124C6.45954 2.73828 6.54638 2.23311 6.45552 1.74374C6.36466 1.25436 6.10184 0.811802 5.71286 0.493162C5.32389 0.174523 4.8334 0 4.32686 0C3.82032 0 3.32984 0.174523 2.94086 0.493162C2.55188 0.811802 2.28907 1.25436 2.1982 1.74374C2.10734 2.23311 2.19419 2.73828 2.44362 3.17124C2.69305 3.60419 3.08924 3.93749 3.56318 4.11306V4.66803C2.78281 4.87719 2.06831 5.27522 1.48509 5.8257C0.901868 6.37617 0.468553 7.06151 0.224803 7.81898C-0.0189467 8.57645 -0.0653459 9.38187 0.0898521 10.1615C0.24505 10.9411 0.596888 11.6701 1.11316 12.2817C1.62944 12.8932 2.29366 13.3679 3.04504 13.6621C3.79642 13.9564 4.61095 14.0609 5.41408 13.966C6.21722 13.8712 6.9833 13.58 7.64222 13.1192C8.30114 12.6584 8.83185 12.0427 9.18576 11.3283C9.23098 11.2397 9.25785 11.1431 9.26482 11.0442C9.27178 10.9453 9.2587 10.846 9.22633 10.7521C9.19396 10.6581 9.14295 10.5714 9.07625 10.497C9.00954 10.4226 8.92847 10.3619 8.83772 10.3184C8.74697 10.2749 8.64834 10.2496 8.54755 10.2438C8.44675 10.238 8.34579 10.2519 8.25049 10.2847C8.1552 10.3174 8.06748 10.3685 7.99239 10.4348C7.9173 10.501 7.85635 10.5813 7.81305 10.6709C7.57881 11.1437 7.23123 11.5537 6.80014 11.8656C6.36905 12.1775 5.86733 12.382 5.33804 12.4616C4.80875 12.5412 4.26771 12.4934 3.76134 12.3225C3.25498 12.1515 2.79842 11.8624 2.43085 11.4801C2.06328 11.0977 1.79568 10.6334 1.65102 10.1272C1.50636 9.62087 1.48897 9.08767 1.60032 8.57333C1.71167 8.05899 1.94846 7.57886 2.29034 7.17416C2.63223 6.76946 3.069 6.45228 3.56318 6.24983V7.74976C3.56318 7.94866 3.64364 8.13942 3.78686 8.28007C3.93008 8.42071 4.12432 8.49973 4.32686 8.49973H9.45496L11.2802 12.0852C11.3659 12.2534 11.5128 12.3838 11.6919 12.4506C11.8709 12.5174 12.069 12.5157 12.2468 12.4458L13.5196 11.9458C13.6128 11.9093 13.6977 11.8551 13.7695 11.7863C13.8413 11.7175 13.8986 11.6355 13.9382 11.545C13.9777 11.4544 13.9987 11.3571 13.9999 11.2586C14.0012 11.1601 13.9826 11.0623 13.9454 10.9709ZM4.32686 1.50005C4.45273 1.50005 4.57577 1.53671 4.68043 1.60538C4.78508 1.67405 4.86665 1.77166 4.91482 1.88586C4.96299 2.00006 4.97559 2.12572 4.95103 2.24695C4.92648 2.36818 4.86587 2.47954 4.77686 2.56694C4.68786 2.65435 4.57447 2.71387 4.45102 2.73799C4.32757 2.7621 4.19961 2.74972 4.08332 2.70242C3.96704 2.65512 3.86764 2.57501 3.79772 2.47224C3.72779 2.36946 3.69046 2.24863 3.69046 2.12502C3.69046 1.95927 3.75751 1.80031 3.87686 1.6831C3.99621 1.5659 4.15808 1.50005 4.32686 1.50005Z" fill="#2C2C2C"/>
</svg>
