<svg width="15" height="14" viewBox="0 0 15 14" fill="none" xmlns="http://www.w3.org/2000/svg">
<path d="M13.6111 2.47059H11.1111V1.92157C11.1111 1.41194 10.9063 0.923178 10.5416 0.562814C10.1769 0.20245 9.68237 0 9.16667 0H5.83333C5.31764 0 4.82306 0.20245 4.4584 0.562814C4.09375 0.923178 3.88889 1.41194 3.88889 1.92157V2.47059H1.38889C1.02053 2.47059 0.667263 2.6152 0.406796 2.8726C0.146329 3.13 0 3.47911 0 3.84314V12.6275C0 12.9915 0.146329 13.3406 0.406796 13.598C0.667263 13.8554 1.02053 14 1.38889 14H13.6111C13.9795 14 14.3327 13.8554 14.5932 13.598C14.8537 13.3406 15 12.9915 15 12.6275V3.84314C15 3.47911 14.8537 3.13 14.5932 2.8726C14.3327 2.6152 13.9795 2.47059 13.6111 2.47059ZM5.55556 1.92157C5.55556 1.84876 5.58482 1.77894 5.63691 1.72746C5.68901 1.67598 5.75966 1.64706 5.83333 1.64706H9.16667C9.24034 1.64706 9.31099 1.67598 9.36309 1.72746C9.41518 1.77894 9.44444 1.84876 9.44444 1.92157V2.47059H5.55556V1.92157ZM9.44444 4.11765V12.3529H5.55556V4.11765H9.44444ZM1.66667 4.11765H3.88889V12.3529H1.66667V4.11765ZM13.3333 12.3529H11.1111V4.11765H13.3333V12.3529Z" fill="#2C2C2C"/>
</svg>
