<svg width="12" height="10" viewBox="0 0 12 10" fill="none" xmlns="http://www.w3.org/2000/svg">
<path d="M5.51988 4.52355C5.51988 4.71298 5.44402 4.89466 5.309 5.0286C5.17398 5.16255 4.99085 5.2378 4.79989 5.2378H0.719984C0.529032 5.2378 0.345902 5.16255 0.210878 5.0286C0.0758552 4.89466 0 4.71298 0 4.52355C0 4.33413 0.0758552 4.15245 0.210878 4.01851C0.345902 3.88456 0.529032 3.80931 0.719984 3.80931H4.79989C4.99085 3.80931 5.17398 3.88456 5.309 4.01851C5.44402 4.15245 5.51988 4.33413 5.51988 4.52355ZM0.719984 1.42849H8.63981C8.83076 1.42849 9.01389 1.35324 9.14891 1.21929C9.28394 1.08535 9.35979 0.903675 9.35979 0.714245C9.35979 0.524816 9.28394 0.343145 9.14891 0.209198C9.01389 0.0752506 8.83076 0 8.63981 0H0.719984C0.529032 0 0.345902 0.0752506 0.210878 0.209198C0.0758552 0.343145 0 0.524816 0 0.714245C0 0.903675 0.0758552 1.08535 0.210878 1.21929C0.345902 1.35324 0.529032 1.42849 0.719984 1.42849ZM3.83991 7.61862H0.719984C0.529032 7.61862 0.345902 7.69387 0.210878 7.82782C0.0758552 7.96176 0 8.14343 0 8.33286C0 8.52229 0.0758552 8.70396 0.210878 8.83791C0.345902 8.97186 0.529032 9.04711 0.719984 9.04711H3.83991C4.03087 9.04711 4.214 8.97186 4.34902 8.83791C4.48404 8.70396 4.5599 8.52229 4.5599 8.33286C4.5599 8.14343 4.48404 7.96176 4.34902 7.82782C4.214 7.69387 4.03087 7.61862 3.83991 7.61862ZM11.7891 6.39904C11.7222 6.33246 11.6428 6.27962 11.5553 6.24358C11.4677 6.20753 11.3739 6.18897 11.2792 6.18897C11.1844 6.18897 11.0906 6.20753 11.003 6.24358C10.9155 6.27962 10.8361 6.33246 10.7692 6.39904L9.59979 7.5591V3.57123C9.59979 3.3818 9.52393 3.20013 9.38891 3.06618C9.25389 2.93223 9.07075 2.85698 8.8798 2.85698C8.68885 2.85698 8.50572 2.93223 8.3707 3.06618C8.23567 3.20013 8.15982 3.3818 8.15982 3.57123V7.5591L6.98925 6.39726C6.85399 6.26308 6.67054 6.1877 6.47926 6.1877C6.28797 6.1877 6.10453 6.26308 5.96927 6.39726C5.83401 6.53144 5.75802 6.71342 5.75802 6.90318C5.75802 7.09294 5.83401 7.27493 5.96927 7.40911L8.36922 9.78992C8.4361 9.85651 8.51558 9.90934 8.6031 9.94539C8.69061 9.98144 8.78444 10 8.8792 10C8.97396 10 9.06779 9.98144 9.15531 9.94539C9.24282 9.90934 9.3223 9.85651 9.38919 9.78992L11.7891 7.40911C11.9242 7.27516 12 7.0935 12 6.90408C12 6.71465 11.9242 6.53299 11.7891 6.39904Z" fill="#747474"/>
</svg>
