<svg width="17" height="14" viewBox="0 0 17 14" fill="none" xmlns="http://www.w3.org/2000/svg">
<path d="M8.49567 6.5289C8.57488 6.64265 8.62418 6.77353 8.63925 6.91009C8.65432 7.04665 8.6347 7.18472 8.58211 7.3122L7.42957 10.1122C7.36538 10.268 7.25463 10.4016 7.1116 10.4956C6.96857 10.5897 6.79983 10.64 6.62712 10.64C6.51703 10.6402 6.40794 10.6198 6.30584 10.5798C6.09302 10.497 5.92277 10.3354 5.83253 10.1306C5.74229 9.92585 5.73946 9.69462 5.82466 9.4878L6.50322 7.84H5.47457C5.33329 7.84 5.19417 7.80634 5.06937 7.74198C4.94458 7.67762 4.83792 7.58451 4.75874 7.47081C4.67955 7.35711 4.63025 7.22629 4.61515 7.08978C4.60005 6.95328 4.61961 6.81526 4.67212 6.6878L5.82466 3.8878C5.91108 3.68268 6.07743 3.51908 6.28745 3.43263C6.49747 3.34618 6.73414 3.34389 6.94588 3.42627C7.15763 3.50865 7.32729 3.66902 7.41789 3.87243C7.50849 4.07583 7.51269 4.3058 7.42957 4.5122L6.75101 6.16H7.77966C7.92094 6.15994 8.06008 6.19354 8.18491 6.25785C8.30974 6.32217 8.41644 6.41523 8.49567 6.5289ZM17 4.1041V9.66C17 10.217 16.7723 10.7511 16.367 11.1449C15.9618 11.5388 15.4121 11.76 14.839 11.76C14.2658 11.76 13.7162 11.5388 13.3109 11.1449C12.9056 10.7511 12.678 10.217 12.678 9.66V7C12.678 6.92574 12.6476 6.85452 12.5936 6.80201C12.5395 6.7495 12.4662 6.72 12.3898 6.72H11.5254V12.32H12.3898C12.6191 12.32 12.8389 12.4085 13.0011 12.566C13.1632 12.7236 13.2542 12.9372 13.2542 13.16C13.2542 13.3828 13.1632 13.5964 13.0011 13.754C12.8389 13.9115 12.6191 14 12.3898 14H0.864406C0.635152 14 0.415286 13.9115 0.253179 13.754C0.0910711 13.5964 0 13.3828 0 13.16C0 12.9372 0.0910711 12.7236 0.253179 12.566C0.415286 12.4085 0.635152 12.32 0.864406 12.32H1.72881V1.96C1.72881 1.44018 1.94131 0.941642 2.31956 0.574071C2.69781 0.2065 3.21083 0 3.74576 0H9.50847C10.0434 0 10.5564 0.2065 10.9347 0.574071C11.3129 0.941642 11.5254 1.44018 11.5254 1.96V5.04H12.3898C12.9248 5.04 13.4378 5.2465 13.816 5.61407C14.1943 5.98164 14.4068 6.48018 14.4068 7V9.66C14.4068 9.77139 14.4523 9.87822 14.5334 9.95699C14.6144 10.0358 14.7243 10.08 14.839 10.08C14.9536 10.08 15.0635 10.0358 15.1446 9.95699C15.2256 9.87822 15.2712 9.77139 15.2712 9.66V4.1041C15.2712 4.06732 15.2638 4.03089 15.2493 3.9969C15.2349 3.96291 15.2136 3.93202 15.1869 3.906L13.7952 2.5543C13.7148 2.47616 13.651 2.3834 13.6075 2.28131C13.564 2.17922 13.5416 2.0698 13.5416 1.9593C13.5416 1.73613 13.6328 1.5221 13.7952 1.3643C13.9576 1.2065 14.1778 1.11784 14.4075 1.11784C14.5212 1.11784 14.6338 1.13961 14.7389 1.1819C14.8439 1.22418 14.9394 1.28616 15.0198 1.3643L16.4093 2.7181C16.5972 2.89968 16.7462 3.11568 16.8476 3.35359C16.9489 3.5915 17.0008 3.84659 17 4.1041ZM9.79661 12.32V1.96C9.79661 1.88574 9.76625 1.81452 9.71221 1.76201C9.65818 1.7095 9.58489 1.68 9.50847 1.68H3.74576C3.66934 1.68 3.59605 1.7095 3.54202 1.76201C3.48798 1.81452 3.45763 1.88574 3.45763 1.96V12.32H9.79661Z" fill="#2C2C2C"/>
</svg>
