<svg width="14" height="12" viewBox="0 0 14 12" fill="none" xmlns="http://www.w3.org/2000/svg">
<path d="M13.2222 10.5H12.963V0.75C12.963 0.551088 12.881 0.360322 12.7352 0.21967C12.5893 0.0790177 12.3915 0 12.1852 0H8.55556C8.34928 0 8.15145 0.0790177 8.00558 0.21967C7.85972 0.360322 7.77778 0.551088 7.77778 0.75V3H4.92593C4.71965 3 4.52182 3.07902 4.37595 3.21967C4.23009 3.36032 4.14815 3.55109 4.14815 3.75V6H1.81481C1.60854 6 1.4107 6.07902 1.26484 6.21967C1.11898 6.36032 1.03704 6.55109 1.03704 6.75V10.5H0.777778C0.571498 10.5 0.373667 10.579 0.227806 10.7197C0.0819442 10.8603 0 11.0511 0 11.25C0 11.4489 0.0819442 11.6397 0.227806 11.7803C0.373667 11.921 0.571498 12 0.777778 12H13.2222C13.4285 12 13.6263 11.921 13.7722 11.7803C13.9181 11.6397 14 11.4489 14 11.25C14 11.0511 13.9181 10.8603 13.7722 10.7197C13.6263 10.579 13.4285 10.5 13.2222 10.5ZM9.33333 1.5H11.4074V10.5H9.33333V1.5ZM5.7037 4.5H7.77778V10.5H5.7037V4.5ZM2.59259 7.5H4.14815V10.5H2.59259V7.5Z" fill="#2C2C2C"/>
</svg>
