<svg width="15" height="15" viewBox="0 0 15 15" fill="none" xmlns="http://www.w3.org/2000/svg">
<path d="M7.27734 0.00390625C7.45669 0.02166 7.62532 0.100983 7.75391 0.229492C7.90073 0.376315 7.9833 0.575572 7.9834 0.783203V1.36523L7.97168 1.50977C7.94631 1.65242 7.8812 1.78621 7.7832 1.89551C7.6526 2.04112 7.47199 2.13297 7.27734 2.15234C7.08278 2.1716 6.8881 2.117 6.73145 2C6.62629 1.92144 6.54545 1.81755 6.49121 1.7002C3.96098 2.02654 1.9499 3.95388 1.61719 6.46289C1.73606 6.50317 1.84551 6.56879 1.93359 6.66113C2.07182 6.80618 2.14975 6.99887 2.15039 7.19922V7.2002C2.15024 7.40122 2.07228 7.59471 1.93359 7.74023C1.84507 7.83306 1.7348 7.89827 1.61523 7.93848C1.94406 10.4632 3.93637 12.4549 6.46094 12.7842C6.50117 12.6648 6.56748 12.5552 6.66016 12.4668C6.80568 12.3281 6.99917 12.2502 7.2002 12.25L7.34863 12.2646C7.49476 12.2929 7.631 12.3627 7.74023 12.4668C7.83283 12.5551 7.89823 12.665 7.93848 12.7842C10.4635 12.4553 12.4553 10.4635 12.7842 7.93848C12.665 7.89823 12.5551 7.83283 12.4668 7.74023C12.3627 7.631 12.2929 7.49476 12.2646 7.34863L12.25 7.2002C12.2501 6.99999 12.3272 6.8075 12.4648 6.66211C12.5524 6.56971 12.6609 6.50266 12.7793 6.46191C12.5697 4.85905 11.6892 3.4763 10.4268 2.5918L9.92383 3.23926L9.68652 3.54395L9.57422 3.1748L8.75879 0.489258L8.67773 0.22168L8.95703 0.231445L11.7842 0.333984L12.1748 0.348633L11.9346 0.657227L11.3926 1.35059C13.2128 2.65794 14.4004 4.79232 14.4004 7.2002C14.4004 11.1697 11.1697 14.4004 7.2002 14.4004C3.23072 14.4004 1.29353e-07 11.1697 0 7.2002C0 3.23072 3.23072 0 7.2002 0L7.27734 0.00390625ZM11.9072 10.6475C11.9734 10.5572 12.0386 10.4662 12.0996 10.3721C12.0386 10.4662 11.9734 10.5572 11.9072 10.6475ZM9.11523 4.86426C9.46484 4.86426 9.76465 4.9541 10.0146 5.13379C10.2646 5.31348 10.457 5.56934 10.5918 5.90137C10.7266 6.23145 10.7939 6.625 10.7939 7.08203V7.08789C10.7939 7.54297 10.7266 7.93652 10.5918 8.26855C10.457 8.60059 10.2646 8.85742 10.0146 9.03906C9.76465 9.21875 9.46484 9.30859 9.11523 9.30859C8.76758 9.30859 8.46777 9.21875 8.21582 9.03906C7.96582 8.85742 7.77344 8.60059 7.63867 8.26855C7.50391 7.93652 7.43652 7.54297 7.43652 7.08789V7.08203C7.43652 6.625 7.50391 6.23145 7.63867 5.90137C7.77344 5.56934 7.96582 5.31348 8.21582 5.13379C8.46777 4.9541 8.76758 4.86426 9.11523 4.86426ZM5.13672 4.86426C5.42773 4.86426 5.68359 4.91602 5.9043 5.01953C6.12695 5.12305 6.30078 5.2666 6.42578 5.4502C6.55273 5.63379 6.61621 5.84766 6.61621 6.0918V6.10059C6.61621 6.26074 6.58496 6.41797 6.52246 6.57227C6.45996 6.72461 6.35449 6.88965 6.20605 7.06738C6.05762 7.24512 5.85449 7.45312 5.59668 7.69141L4.81445 8.42188V8.48828H6.67773V9.2002H3.62793V8.60547L4.99023 7.26074C5.18945 7.06934 5.34375 6.91211 5.45312 6.78906C5.5625 6.66406 5.63867 6.55566 5.68164 6.46387C5.72461 6.37012 5.74609 6.27344 5.74609 6.17383V6.16504C5.74609 6.04395 5.71973 5.9375 5.66699 5.8457C5.61621 5.75391 5.54199 5.68262 5.44434 5.63184C5.34668 5.5791 5.23047 5.55273 5.0957 5.55273C4.95898 5.55273 4.83789 5.58203 4.73242 5.64062C4.62695 5.69727 4.54492 5.77637 4.48633 5.87793C4.42773 5.97754 4.39844 6.09473 4.39844 6.22949V6.24414H3.58105L3.57812 6.22949C3.57812 5.95996 3.64355 5.72266 3.77441 5.51758C3.90723 5.3125 4.08984 5.15234 4.32227 5.03711C4.55664 4.92188 4.82812 4.86426 5.13672 4.86426ZM9.11523 5.56445C8.94922 5.56445 8.80762 5.625 8.69043 5.74609C8.5752 5.86523 8.48633 6.03809 8.42383 6.26465C8.36328 6.48926 8.33301 6.76172 8.33301 7.08203V7.08789C8.33301 7.40625 8.36328 7.67871 8.42383 7.90527C8.48633 8.13184 8.5752 8.30566 8.69043 8.42676C8.80762 8.54785 8.94922 8.6084 9.11523 8.6084C9.2832 8.6084 9.4248 8.54785 9.54004 8.42676C9.65723 8.30566 9.74609 8.13184 9.80664 7.90527C9.86914 7.67871 9.90039 7.40625 9.90039 7.08789V7.08203C9.90039 6.76172 9.86914 6.48926 9.80664 6.26465C9.74609 6.03809 9.65723 5.86523 9.54004 5.74609C9.4248 5.625 9.2832 5.56445 9.11523 5.56445Z" fill="#2C2C2C"/>
</svg>
