<svg width="21" height="14" viewBox="0 0 21 14" fill="none" xmlns="http://www.w3.org/2000/svg">
<path d="M10.8621 7.36892e-05C10.7661 -0.00130718 10.6708 0.0167316 10.5818 0.0531415C10.4928 0.0895515 10.4117 0.143606 10.3434 0.212165C10.275 0.280724 10.2208 0.362419 10.1837 0.452503C10.1467 0.542587 10.1276 0.639262 10.1276 0.736912C10.1276 0.834562 10.1467 0.931237 10.1837 1.02132C10.2208 1.1114 10.275 1.1931 10.3434 1.26166C10.4117 1.33022 10.4928 1.38427 10.5818 1.42068C10.6708 1.45709 10.7661 1.47513 10.8621 1.47375H12.5706L15.2408 7.36126C14.3472 8.03387 13.7586 9.10485 13.7586 10.3158C13.7586 12.3418 15.3882 14 17.3793 14C19.3704 14 21 12.3418 21 10.3158C21 8.28981 19.3704 6.63162 17.3793 6.63162C17.0946 6.63162 16.821 6.67407 16.5548 6.73811L15.1687 3.68427H15.931V1.47375H14.8448C14.6245 1.47375 14.4207 1.54167 14.2494 1.65652L13.8859 0.85636C13.65 0.335034 13.134 7.36892e-05 12.5706 7.36892e-05H10.8621ZM3.98276 3.68427C3.51071 3.68427 3.1127 3.99282 2.96303 4.4211H1.44828C1.35232 4.41972 1.25705 4.43776 1.168 4.47417C1.07896 4.51058 0.997911 4.56464 0.929574 4.63319C0.861238 4.70175 0.806974 4.78345 0.769936 4.87353C0.732898 4.96362 0.713824 5.06029 0.713824 5.15794C0.713824 5.25559 0.732898 5.35227 0.769936 5.44235C0.806974 5.53243 0.861238 5.61413 0.929574 5.68269C0.997911 5.75125 1.07896 5.8053 1.168 5.84171C1.25705 5.87812 1.35232 5.89616 1.44828 5.89478H3.62069H4.10863L3.8979 6.64889C3.80578 6.64159 3.71471 6.63162 3.62069 6.63162C1.62424 6.63162 0 8.28435 0 10.3158C0 12.3473 1.62424 14 3.62069 14C5.36902 14 6.83122 12.732 7.16783 11.0526H10.0997H10.1379C10.1492 11.0529 10.1606 11.0529 10.1719 11.0526H10.8621H11.1223C11.8124 11.0526 12.4069 10.5572 12.5423 9.86824L13.0345 7.36846H9.31762L8.49023 5.89478H9.41379H13.7586L13.3739 5.00539C13.0271 4.20298 12.2471 3.68427 11.3854 3.68427H8.68966C8.23521 3.68427 7.83498 3.90106 7.5695 4.23402L4.16096 3.69866L4.15672 3.70297C4.09951 3.6934 4.04286 3.68427 3.98276 3.68427ZM5.6149 5.89478H6.81991L8.88908 9.57897H4.58102L4.99401 8.1053H6.49885C6.17655 7.67174 5.76229 7.31238 5.28819 7.05616L5.6149 5.89478ZM17.3793 8.1053C18.5877 8.1053 19.5517 9.08625 19.5517 10.3158C19.5517 11.5454 18.5877 12.5263 17.3793 12.5263C16.1709 12.5263 15.2069 11.5454 15.2069 10.3158C15.2069 9.69026 15.4589 9.13173 15.8631 8.73132L16.7216 10.6252C16.8023 10.8027 16.9489 10.9403 17.1293 11.0078C17.2186 11.0412 17.3135 11.0564 17.4086 11.0525C17.5036 11.0486 17.597 11.0256 17.6834 10.985C17.7698 10.9444 17.8474 10.8868 17.9119 10.8157C17.9764 10.7445 18.0265 10.6611 18.0594 10.5702C18.0922 10.4793 18.1071 10.3828 18.1033 10.286C18.0994 10.1893 18.0769 10.0943 18.037 10.0064L17.1841 8.12544C17.2495 8.11953 17.3123 8.1053 17.3793 8.1053ZM3.48491 8.11969L2.95595 10.0035C2.88841 10.1498 2.87002 10.3147 2.90362 10.4727C2.92177 10.5711 2.95944 10.6648 3.01435 10.7479C3.06925 10.831 3.14024 10.9019 3.22297 10.9562C3.3057 11.0105 3.39843 11.047 3.49551 11.0636C3.59259 11.0802 3.69197 11.0765 3.78758 11.0526H5.66016C5.36017 11.9083 4.56323 12.5263 3.62069 12.5263C2.42297 12.5263 1.44828 11.5345 1.44828 10.3158C1.44828 9.14443 2.35147 8.19264 3.48491 8.11969Z" fill="#2C2C2C"/>
</svg>
