<svg width="12" height="12" viewBox="0 0 12 12" fill="none" xmlns="http://www.w3.org/2000/svg">
<path d="M6 0C4.81331 0 3.65328 0.351894 2.66658 1.01118C1.67989 1.67047 0.910851 2.60754 0.456725 3.7039C0.00259972 4.80026 -0.11622 6.00665 0.115291 7.17054C0.346802 8.33443 0.918247 9.40352 1.75736 10.2426C2.59648 11.0818 3.66557 11.6532 4.82946 11.8847C5.99335 12.1162 7.19974 11.9974 8.2961 11.5433C9.39246 11.0891 10.3295 10.3201 10.9888 9.33342C11.6481 8.34672 12 7.18669 12 6C11.9982 4.40924 11.3655 2.88414 10.2407 1.75931C9.11586 0.634472 7.59076 0.00176457 6 0ZM6 10.6667C5.07702 10.6667 4.17477 10.393 3.40734 9.88019C2.63991 9.36741 2.04177 8.63858 1.68856 7.78585C1.33536 6.93313 1.24294 5.99482 1.423 5.08958C1.60307 4.18433 2.04753 3.35281 2.70017 2.70017C3.35282 2.04752 4.18434 1.60307 5.08958 1.423C5.99482 1.24294 6.93314 1.33535 7.78586 1.68856C8.63858 2.04177 9.36741 2.63991 9.88019 3.40734C10.393 4.17477 10.6667 5.07702 10.6667 6C10.6653 7.23727 10.1733 8.42348 9.29837 9.29837C8.42349 10.1733 7.23727 10.6653 6 10.6667ZM5.33333 6.22222V3.33333C5.33333 3.15652 5.40357 2.98695 5.5286 2.86193C5.65362 2.7369 5.82319 2.66667 6 2.66667C6.17681 2.66667 6.34638 2.7369 6.47141 2.86193C6.59643 2.98695 6.66667 3.15652 6.66667 3.33333V6.22222C6.66667 6.39903 6.59643 6.5686 6.47141 6.69362C6.34638 6.81865 6.17681 6.88889 6 6.88889C5.82319 6.88889 5.65362 6.81865 5.5286 6.69362C5.40357 6.5686 5.33333 6.39903 5.33333 6.22222ZM6.88889 8.44444C6.88889 8.62025 6.83676 8.79211 6.73909 8.93828C6.64141 9.08446 6.50259 9.19839 6.34016 9.26567C6.17774 9.33295 5.99902 9.35055 5.82659 9.31625C5.65416 9.28195 5.49578 9.1973 5.37146 9.07298C5.24715 8.94867 5.16249 8.79028 5.12819 8.61786C5.09389 8.44543 5.1115 8.2667 5.17878 8.10428C5.24605 7.94186 5.35998 7.80303 5.50616 7.70536C5.65234 7.60769 5.8242 7.55555 6 7.55555C6.23575 7.55555 6.46184 7.6492 6.62854 7.8159C6.79524 7.9826 6.88889 8.20869 6.88889 8.44444Z" fill="#747474"/>
</svg>
