<svg width="10" height="10" viewBox="0 0 10 10" fill="none" xmlns="http://www.w3.org/2000/svg">
<path d="M9.5 1.26661V3.43872C9.5 3.58274 9.44438 3.72086 9.34539 3.82269C9.24639 3.92453 9.11213 3.98174 8.97213 3.98174H6.86063C6.72063 3.98174 6.58636 3.92453 6.48737 3.82269C6.38837 3.72086 6.33276 3.58274 6.33276 3.43872C6.33276 3.2947 6.38837 3.15658 6.48737 3.05474C6.58636 2.9529 6.72063 2.89569 6.86063 2.89569H7.61285L6.77705 2.10921C6.77133 2.10378 6.76561 2.09835 6.76033 2.09246C6.37279 1.69404 5.89601 1.39971 5.37192 1.23536C4.84784 1.07101 4.29252 1.04168 3.75483 1.14995C3.21714 1.25822 2.71355 1.50078 2.28839 1.85627C1.86322 2.21177 1.5295 2.66931 1.31659 3.18864C1.10369 3.70797 1.01812 4.27316 1.06741 4.8345C1.11671 5.39584 1.29936 5.93611 1.5993 6.40777C1.89923 6.87944 2.30726 7.26805 2.78748 7.53941C3.26769 7.81076 3.80538 7.95655 4.35323 7.96394H4.39722C5.25058 7.96605 6.07201 7.63031 6.69127 7.02631C6.79306 6.92736 6.9289 6.87405 7.06889 6.87813C7.20889 6.8822 7.34158 6.94332 7.43777 7.04803C7.53396 7.15275 7.58578 7.29248 7.58182 7.43649C7.57786 7.58051 7.51845 7.71701 7.41666 7.81596C6.60148 8.61078 5.52037 9.05262 4.39722 9.04999H4.33695C3.61687 9.03955 2.91028 8.8474 2.27925 8.49042C1.64821 8.13344 1.11203 7.62254 0.717768 7.00259C0.32351 6.38264 0.083241 5.6726 0.0180574 4.93481C-0.0471261 4.19702 0.0647698 3.45405 0.34392 2.77114C0.62307 2.08823 1.06094 1.48626 1.61907 1.0181C2.1772 0.549942 2.83854 0.229902 3.54499 0.0860867C4.25145 -0.0577288 4.98143 -0.0209217 5.67083 0.193276C6.36023 0.407474 6.98797 0.792512 7.49892 1.31458L8.44425 2.20424V1.26661C8.44425 1.12259 8.49987 0.984472 8.59886 0.882635C8.69786 0.780797 8.83212 0.723586 8.97213 0.723586C9.11213 0.723586 9.24639 0.780797 9.34539 0.882635C9.44438 0.984472 9.5 1.12259 9.5 1.26661Z" fill="#D9D9D9"/>
</svg>
