<svg width="270" height="192" viewBox="0 0 270 192" fill="none" xmlns="http://www.w3.org/2000/svg">
<g clip-path="url(#clip0_782_5216)">
<path d="M10.703 99.788C10.7699 99.4535 11.2047 98.8012 11.5893 98.6674L54.7024 84.6676L64.0508 41.1295C55.4382 36.7473 57.445 23.4667 67.1781 22.3795C78.6504 21.0916 82.7643 36.0281 72.5965 41.1295L80.4063 76.2042L115.843 64.6966C127.366 69.6308 139.055 74.5985 150.26 80.2185C151.715 80.9377 153.337 81.5398 154.474 82.7441V103.15H260.819C261.321 103.15 261.755 104.388 261.822 104.906C262.04 106.579 262.04 121.047 261.605 121.766C261.354 121.967 260.602 122.552 260.418 122.552H253.494V141.57H261.22L261.822 142.172V160.002L261.22 160.604H253.494V188.336H269.732C270.034 188.336 270.301 191.113 269.13 191.113H0.602044C-0.200681 191.113 -0.200681 188.336 0.602044 188.336H10.703V99.8048V99.788ZM67.6631 25.2063C58.5822 26.2098 59.7362 40.1929 69.5027 38.9384C78.3494 37.8178 77.162 24.1692 67.6631 25.2063ZM65.372 50.078H71.7101L70.1214 41.7651L67.5293 41.7317L66.8269 42.2334L65.3552 50.078H65.372ZM72.4961 52.8545H64.5692L62.7965 61.5689C65.673 59.0767 68.9842 56.8855 71.7101 54.2428C72.145 53.8247 72.6299 53.557 72.4961 52.8545ZM76.4596 71.8554L73.0982 56.8019L64.1846 64.5126L76.4596 71.8387V71.8554ZM77.6135 77.375V76.0871C76.1753 75.1337 62.044 66.018 61.4085 66.7205L57.8464 83.7477L77.6135 77.375ZM151.715 188.336V84.3498L116.211 67.6237L78.0483 80.185V188.336H89.136V131.484C89.136 131.484 90.0558 130.497 90.1227 130.497H139.641L140.627 188.336H151.715ZM75.2722 188.336V81.9747L13.4791 101.778V188.336H75.2722ZM259.046 105.927H154.474V119.793H259.046V105.927ZM250.735 122.569H241.62V141.587H250.735V122.569ZM259.046 144.363H154.474V157.828H259.046V144.363ZM250.735 160.604H241.62V188.336H250.735V160.604Z" fill="#0076B9"/>
<path d="M63.298 0.2676C73.0979 -0.836324 83.0985 1.40498 90.507 8.09543C91.3265 8.83138 95.7749 13.0129 92.4971 13.2638C91.5439 13.3307 87.5972 9.31643 86.2593 8.37977C73.4993 -0.501801 56.2073 1.48861 45.5544 12.6449C44.6179 13.1634 43.6814 12.7286 43.2466 11.7919C42.9456 10.2029 50.0363 5.21853 51.5414 4.34877C54.8025 2.442 59.5687 0.685753 63.298 0.2676Z" fill="#0076B9"/>
<path d="M64.887 11.357C71.1249 10.6043 77.5801 12.093 82.4132 16.1909C83.3832 17.0105 87.0121 20.3222 84.1859 20.7738C82.8313 20.9913 79.7374 17.5959 78.0317 16.6258C71.1583 12.7286 63.1645 13.1802 56.8765 17.9806C55.4885 19.051 54.6188 21.2422 52.5619 20.6902C49.9864 19.8372 54.6523 16.0738 55.5052 15.4215C58.0471 13.498 61.6929 11.725 64.887 11.3403V11.357Z" fill="#0076B9"/>
<path d="M22.5934 116.43L67.8972 103.535C68.3153 103.652 68.516 105.642 68.5494 106.127C68.9843 112.734 68.3488 119.926 68.332 126.55L67.429 127.236L23.4797 136.552C23.2456 136.452 22.5767 135.967 22.5767 135.85V116.43H22.5934ZM65.372 106.729L25.3695 118.421V133.274L65.372 124.359V106.729Z" fill="#0076B9"/>
<path d="M22.5933 154.064L24.0816 153.178L66.7766 145.534C68.3319 145.484 68.449 146.872 68.5493 148.11C68.9674 152.743 69.0677 163.431 68.5493 167.947C68.2985 170.004 67.4957 170.255 65.5725 170.523C54.5852 172.028 42.2935 172.396 31.1222 173.299C29.7843 173.4 22.61 174.955 22.61 173.099V154.081L22.5933 154.064ZM65.3718 148.712L25.3694 155.837V170.891L65.3718 167.729V148.712Z" fill="#0076B9"/>
<path d="M131.19 104.737L127.327 102.841C127.364 103.89 127.29 104.718 127.069 105.786L131.19 104.737Z" fill="#0076B9"/>
<path d="M130.656 99.2713L126.609 98.5353C126.94 99.5472 127.18 100.596 127.272 101.681L130.638 99.2529L130.656 99.2713Z" fill="#0076B9"/>
<path d="M128.982 94.4325L124.53 94.9108C125.193 95.794 125.744 96.7507 126.167 97.7626L128.982 94.4325Z" fill="#0076B9"/>
<path d="M124.107 94.3591L125.836 90.3667L121.716 92.0777C122.599 92.7401 123.408 93.5128 124.089 94.3591" fill="#0076B9"/>
<path d="M118.441 90.256C119.49 90.6608 120.447 91.1944 121.348 91.8199L121.918 87.5147L118.441 90.256Z" fill="#0076B9"/>
<path d="M116.252 89.5937C116.768 89.7041 117.283 89.8513 117.779 90.0169L117.099 85.7668L114.615 89.3546C115.167 89.4097 115.719 89.4833 116.271 89.6121" fill="#0076B9"/>
<path d="M110.624 89.5202C111.654 89.3178 112.721 89.2258 113.806 89.281L111.948 85.4725L110.624 89.5386V89.5202Z" fill="#0076B9"/>
<path d="M106.356 91.1208L102.622 88.8394L103.725 93.0526C104.498 92.3351 105.436 91.6359 106.356 91.1208Z" fill="#0076B9"/>
<path d="M106.981 90.7714C107.92 90.293 108.895 89.9251 109.925 89.6675L107.129 86.5582L106.981 90.7714Z" fill="#0076B9"/>
<path d="M125.873 109.263C126.37 108.416 126.609 107.919 126.903 106.962L129.92 109.778L125.891 109.281L125.873 109.263Z" fill="#0076B9"/>
<path d="M104.719 81.7562C104.719 81.7562 102.787 82.4002 99.8989 84.4976L105.344 88.5084L104.719 81.7378V81.7562Z" fill="#0076B9"/>
<mask id="mask0_782_5216" style="mask-type:luminance" maskUnits="userSpaceOnUse" x="96" y="80" width="39" height="42">
<path d="M134.832 80.137H96.1646V121.718H134.832V80.137Z" fill="white"/>
</mask>
<g mask="url(#mask0_782_5216)">
<path d="M111.102 80.1923C111.102 80.1923 108.711 80.2843 105.344 81.4802L109.778 86.8525L111.102 80.1923Z" fill="#0076B9"/>
<path d="M117.743 80.652C117.743 80.652 115.425 80.0081 111.856 80.1368L114.468 86.5947L117.743 80.652Z" fill="#0076B9"/>
</g>
<path d="M123.886 83.0256C123.886 83.0256 121.863 81.7377 118.423 80.7994L118.993 87.7356L123.905 83.0256H123.886Z" fill="#0076B9"/>
<path d="M124.494 83.3751L122.967 90.1641L129.056 87.1283C129.056 87.1283 127.51 85.2885 124.494 83.3751Z" fill="#0076B9"/>
<path d="M132.606 92.4456C132.606 92.4456 131.668 90.2378 129.35 87.5332L125.892 93.5679L132.606 92.4456Z" fill="#0076B9"/>
<mask id="mask1_782_5216" style="mask-type:luminance" maskUnits="userSpaceOnUse" x="96" y="80" width="39" height="42">
<path d="M134.832 80.137H96.1646V121.718H134.832V80.137Z" fill="white"/>
</mask>
<g mask="url(#mask1_782_5216)">
<path d="M134.537 98.5356C134.537 98.5356 134.298 96.1622 132.9 92.8873L127.786 97.6157L134.537 98.5356Z" fill="#0076B9"/>
<path d="M134.666 104.847C134.666 104.847 135.071 102.565 134.611 99.143L128.596 102.216L134.666 104.828V104.847Z" fill="#0076B9"/>
</g>
<path d="M127.915 106.594L132.9 110.936C132.9 110.936 133.986 108.894 134.593 105.49L127.915 106.594Z" fill="#0076B9"/>
<path d="M99.3654 84.9391C99.3654 84.9391 97.5994 86.2822 96.1646 88.1589L101.959 91.8385L99.3838 84.9391H99.3654Z" fill="#0076B9"/>
<path d="M123.159 109.604C124.042 106.789 123.895 104.379 123.895 104.379C123.6 99.7428 121.117 95.4375 116.205 93.8921C116.205 93.8921 112.747 92.7146 109.877 93.7449C109.877 93.7449 111.993 91.7394 116.757 93.0457L116.978 93.1193C121.963 94.6832 123.968 98.4181 124.796 101.417C125.054 102.392 125.569 104.729 125.035 108.942C125.035 108.942 126.323 106.513 126.231 103.238C126.139 96.2655 120.455 90.4883 113.336 90.3595C109.362 90.286 106.106 92.4754 104.579 93.8369L106.125 95.2903C105.278 96.0631 104.211 97.1486 103.604 98.3445C103.604 98.3445 101.084 103.312 99.0791 109.678L101.066 108.905C101.066 108.905 101.139 108.611 101.305 108.132C102.685 104.177 103.126 104.011 103.126 104.011C103.715 103.312 105.039 103.312 105.039 103.312L109.785 103.202C109.785 103.202 108.939 105.612 103.494 105.685L99.4654 121.655C99.4654 121.655 110.319 117.129 114.035 116.577C116.132 114.554 115.23 110.377 115.23 110.377C115.23 110.377 113.924 114.388 111.735 115.197L102.354 118.417L105.205 107.065C105.205 107.065 111.11 106.973 112.342 101.951C112.342 101.951 104.579 101.601 104.009 102.171C104.009 102.171 106.014 94.628 113.667 95.2351C113.667 95.2351 121.374 95.7319 122.11 104.25C122.129 105.207 122.074 107.305 121.522 108.464C120.731 108.004 119.774 107.452 119.185 107.194L124.851 114.922C123.012 114.517 121.246 114.351 119.645 114.296C119.645 114.296 119.645 114.296 119.627 114.296C117.18 113.965 116.15 112.364 116.15 112.364L117.916 116.117C117.916 116.117 117.916 116.117 117.935 116.117C122.957 115.749 129.101 118.031 129.101 118.031L123.104 109.66L123.159 109.604Z" fill="#0076B9"/>
<path d="M132.68 111.396C131.557 113.714 130.417 115.094 130.417 115.094L125.726 110.126L132.661 111.396H132.68Z" fill="#0076B9"/>
</g>
<defs>
<clipPath id="clip0_782_5216">
<rect width="270" height="191.096" fill="white"/>
</clipPath>
</defs>
</svg>
