<svg width="11" height="14" viewBox="0 0 11 14" fill="none" xmlns="http://www.w3.org/2000/svg">
<path d="M6.9345 4.3394C7.36019 4.3394 7.77632 4.21215 8.13027 3.97374C8.48421 3.73533 8.76008 3.39647 8.92299 3.00001C9.08589 2.60355 9.12851 2.16729 9.04547 1.74641C8.96242 1.32553 8.75743 0.938928 8.45642 0.635491C8.15541 0.332053 7.7719 0.125409 7.35439 0.0416911C6.93688 -0.0420271 6.50412 0.000940069 6.11084 0.165159C5.71755 0.329379 5.3814 0.607474 5.1449 0.964279C4.9084 1.32108 4.78217 1.74057 4.78217 2.1697C4.78217 2.74514 5.00893 3.29701 5.41257 3.70391C5.81621 4.1108 6.36366 4.3394 6.9345 4.3394ZM6.9345 1.44647C7.07639 1.44647 7.2151 1.48888 7.33309 1.56835C7.45107 1.64782 7.54302 1.76078 7.59733 1.89293C7.65163 2.02508 7.66583 2.1705 7.63815 2.31079C7.61047 2.45109 7.54214 2.57996 7.4418 2.6811C7.34147 2.78225 7.21363 2.85113 7.07446 2.87903C6.93529 2.90694 6.79104 2.89262 6.65994 2.83788C6.52885 2.78314 6.4168 2.69044 6.33797 2.57151C6.25913 2.45257 6.21705 2.31274 6.21705 2.1697C6.21705 1.97789 6.29264 1.79393 6.42719 1.6583C6.56173 1.52266 6.74422 1.44647 6.9345 1.44647ZM11 8.19664C11 8.38845 10.9244 8.57241 10.7899 8.70804C10.6553 8.84367 10.4728 8.91987 10.2826 8.91987C8.07045 8.91987 6.97814 7.80669 6.09748 6.9129C5.99525 6.80924 5.8966 6.70798 5.79855 6.61155L5.28259 7.8079L7.353 9.29535C7.4457 9.36246 7.52117 9.45088 7.57316 9.55329C7.62515 9.6557 7.65216 9.76914 7.65194 9.88418V13.2593C7.65194 13.4511 7.57635 13.635 7.4418 13.7707C7.30726 13.9063 7.12477 13.9825 6.9345 13.9825C6.74422 13.9825 6.56173 13.9063 6.42719 13.7707C6.29264 13.635 6.21705 13.4511 6.21705 13.2593V10.256L4.70026 9.16396L2.80921 13.5474C2.77335 13.6369 2.72005 13.7184 2.65246 13.7869C2.58486 13.8554 2.50434 13.9095 2.41564 13.9461C2.32695 13.9827 2.23188 14.001 2.13605 14C2.04022 13.9989 1.94557 13.9785 1.85769 13.94C1.7698 13.9014 1.69047 13.8455 1.62437 13.7756C1.55827 13.7056 1.50675 13.623 1.47284 13.5327C1.43893 13.4423 1.42332 13.346 1.42694 13.2495C1.43055 13.1529 1.45332 13.0581 1.4939 12.9706L4.48682 6.03176C4.06274 6.0619 3.56451 6.23065 2.99215 6.53802C2.351 6.89423 1.75259 7.32356 1.20871 7.81754C1.06997 7.94886 0.885161 8.01923 0.694946 8.01318C0.504731 8.00713 0.32469 7.92516 0.194429 7.7853C0.0641682 7.64543 -0.00564159 7.45914 0.000356944 7.26739C0.00635547 7.07563 0.087671 6.89414 0.226415 6.76283C0.382459 6.61517 4.0743 3.16655 6.44963 5.24524C6.68518 5.45137 6.9064 5.67677 7.12043 5.89495C7.91679 6.70678 8.66831 7.4734 10.2826 7.4734C10.4728 7.4734 10.6553 7.5496 10.7899 7.68523C10.9244 7.82087 11 8.00482 11 8.19664Z" fill="#747474"/>
</svg>
