<?xml version="1.0" encoding="UTF-8"?>
<svg id="Layer_2" data-name="Layer 2" xmlns="http://www.w3.org/2000/svg" viewBox="0 0 41.23 17.33">
  <defs>
    <style>
      .cls-1 {
        fill: #0176b9;
      }
    </style>
  </defs>
  <g id="Layer_1-2" data-name="Layer 1">
    <g>
      <path class="cls-1" d="M40.57,6.38c-1.96-4.17-7.03-5.85-11-3.65-.44.22-.74.38-1.31.71-.07-.09-.14-.17-.17-.21-3.84-4.67-11.52-4.19-14.76.91-.25.39-1,1.92-1,1.92,0,0-1.27-.46-1.74-.54-3.25-.51-5.34,2.02-4.89,5.14-2.35-.04-4.6,1.77-5.37,3.93-.16.46-.55,2.28-.15,2.74h19.49c1.1,0,2.1-.63,2.56-1.63,1.26-2.7,3.57-7.64,3.87-8.26.97-1.7,1.97-2.4,2.99-2.94,2.27-1.2,5.08-1.02,7.07.6,4.02,3.28,3.14,8.68-.85,10.9-1.78.99-3.82,1.07-5.59.41,2.68,1.41,6.12,1.24,8.76-.95s3.52-6.06,2.1-9.07Z"/>
      <path class="cls-1" d="M32.25,13.7c.22-1.46,1.04-2.95,2.59-3.3l.82-.11c-.27,0-.54-.02-.8-.08-1.4-.31-2.2-1.53-2.51-2.86-.03-.15-.05-.3-.09-.44-.18,1.09-.65,2.22-1.59,2.86-.53.36-1.15.52-1.79.52.46.02.9.09,1.32.27,1.23.54,1.87,1.86,2.06,3.13Z"/>
    </g>
  </g>
</svg>