<?xml version="1.0" encoding="UTF-8"?>
<svg id="Layer_2" data-name="Layer 2" xmlns="http://www.w3.org/2000/svg" xmlns:xlink="http://www.w3.org/1999/xlink" viewBox="0 0 160 90.98">
  <defs>
    <style>
      .cls-1 {
        fill: #f2f2f3;
      }

      .cls-2 {
        fill: url(#linear-gradient);
      }
    </style>
    <linearGradient id="linear-gradient" x1="70.06" y1="89.88" x2="86.61" y2="-3.93" gradientTransform="translate(0 94.69) scale(1 -1)" gradientUnits="userSpaceOnUse">
      <stop offset="0" stop-color="#abd2e5"/>
      <stop offset=".28" stop-color="#85afd5"/>
      <stop offset=".58" stop-color="#6390c7"/>
      <stop offset=".83" stop-color="#4e7dbe"/>
      <stop offset="1" stop-color="#4776bb"/>
    </linearGradient>
  </defs>
  <g id="Logo">
    <path id="Cloud" class="cls-2" d="M156.01,73.53c-5.47,10.04-15.96,16.87-27.48,17.44H26.99c-4.11-.08-10.2-4.9-8.43-9.38.25-.58,1.07-1.48,1.56-1.77,2.76-1.6,11.15-.41,14.73-.74,4.61-.45,4.57-7.2,0-7.65-9.54-.91-20.65.91-30.2,0-5.64-.53-6.38-7.2-.95-8.56h41.14c6.29-.53,6.79-9.87-.25-10.49h-28.26c-3.91-1.44-3.66-6.95.41-7.82l20.37-.12c3.58-11.97,14.48-18.6,26.87-16.87C69.16,13.26,81.5,1.41,97.22.18c6.62-.53,13.08.08,19.21,2.72,10.37,4.48,17.9,14.36,21.11,25.01,19.79,4.98,28.06,28.1,18.47,45.59v.04Z"/>
    <path id="Spark" class="cls-1" d="M126.14,53.25c-3.74,3.58-10.57,5.23-14.19,9.5-4.53,3.87-7.9,13.99-9.71,15.06-1.07.58-1.56-.29-2.47-1.6-2.51-4.65-4.94-10.29-9.13-13.91-4.61-4.44-12.14-6.95-13.25-8.76-.62-1.07.16-1.6,1.48-2.55,4.69-2.72,10.24-5.47,13.7-9.96,4.28-4.81,6.58-13,8.39-14.07,1.07-.58,1.52.33,2.39,1.65,2.43,4.69,4.73,10.37,8.76,14.15,4.9,5.51,13.66,7.32,14.11,10.24l-.08.21v.04Z"/>
  </g>
</svg>